<svg width="18" height="18" viewBox="0 0 18 18" fill="none" xmlns="http://www.w3.org/2000/svg">
<path d="M2.42593 6.43528H5.63927C5.8426 6.43528 6.0376 6.3545 6.18138 6.21072C6.32516 6.06695 6.40593 5.87194 6.40593 5.66861C6.40593 5.46528 6.32516 5.27027 6.18138 5.12649C6.0376 4.98272 5.8426 4.90194 5.63927 4.90194H3.84322C4.75635 3.76003 6.02605 2.95389 7.45223 2.61467C8.94415 2.25983 10.5132 2.43832 11.8873 3.11921C13.2614 3.80009 14.3538 4.94042 14.9752 6.34243C15.5966 7.74445 15.7076 9.31972 15.2892 10.795C14.8707 12.2704 13.9491 13.5527 12.6841 14.4197C11.4192 15.2867 9.89067 15.6836 8.36373 15.5416C6.83678 15.3996 5.40768 14.7277 4.32427 13.6423C3.24136 12.5575 2.57208 11.128 2.43238 9.60164C2.42726 9.49907 2.40158 9.39857 2.35687 9.3061C2.31182 9.21294 2.24838 9.12987 2.17038 9.06189C2.09237 8.9939 2.00141 8.94241 1.90297 8.91052C1.80453 8.87863 1.70066 8.86699 1.5976 8.87631C1.49455 8.88563 1.39445 8.91572 1.30333 8.96476C1.21221 9.01379 1.13197 9.08077 1.06742 9.16165C1.00288 9.24253 0.955378 9.33564 0.927777 9.43536C0.900371 9.53439 0.89315 9.6379 0.906536 9.73976C1.07671 11.5953 1.88143 13.3355 3.18508 14.6669C4.48921 15.9988 6.21281 16.8402 8.06514 17.049C9.91746 17.2579 11.7851 16.8214 13.3531 15.8134C14.9211 14.8053 16.0934 13.2873 16.6722 11.5154C17.2511 9.74346 17.2011 7.82613 16.5307 6.0868C15.8603 4.34747 14.6104 2.8926 12.9921 1.96762C11.3737 1.04263 9.4858 0.704145 7.64688 1.00926C5.89354 1.30017 4.28702 2.15919 3.0726 3.45033V2.33528C3.0726 2.13194 2.99183 1.93694 2.84805 1.79316C2.70427 1.64938 2.50927 1.56861 2.30593 1.56861C2.1026 1.56861 1.9076 1.64938 1.76382 1.79316C1.62004 1.93694 1.53927 2.13194 1.53927 2.33528V5.66861C1.53927 5.87194 1.62004 6.06695 1.76382 6.21072C1.9076 6.3545 2.1026 6.43528 2.30593 6.43528H2.42593ZM8.84805 5.12649C8.70427 4.98272 8.50927 4.90194 8.30593 4.90194C8.1026 4.90194 7.9076 4.98272 7.76382 5.12649C7.62004 5.27027 7.53927 5.46528 7.53927 5.66861V9.66861C7.53927 9.87194 7.62004 10.0669 7.76382 10.2107C7.9076 10.3545 8.1026 10.4353 8.30593 10.4353H10.9726C11.1759 10.4353 11.3709 10.3545 11.5147 10.2107C11.6585 10.0669 11.7393 9.87194 11.7393 9.66861C11.7393 9.46528 11.6585 9.27027 11.5147 9.12649C11.3709 8.98272 11.1759 8.90194 10.9726 8.90194H9.0726V5.66861C9.0726 5.46528 8.99183 5.27027 8.84805 5.12649Z" fill="#133D65" stroke="#133D65" stroke-width="0.2"/>
</svg>
