<svg width="22" height="22" viewBox="0 0 22 22" fill="none" xmlns="http://www.w3.org/2000/svg">
<path d="M11 22C17.0751 22 22 17.0751 22 11C22 4.92487 17.0751 0 11 0C4.92487 0 0 4.92487 0 11C0 17.0751 4.92487 22 11 22Z" fill="#F7931A"/>
<path d="M15.9501 9.625C16.1563 8.18125 15.0563 7.425 13.5438 6.875L14.0251 4.95L12.8563 4.675L12.3751 6.53125C12.0313 6.4625 11.7563 6.39375 11.4126 6.325L11.8938 4.4L10.7251 4.125L10.2438 6.05C9.96885 5.98125 9.7626 5.9125 9.4876 5.84375L7.8376 5.5L7.49385 6.7375L8.3876 6.94375C8.86885 7.08125 8.9376 7.35625 8.9376 7.63125L8.3876 9.83125C8.3876 9.83125 8.45635 9.83125 8.5251 9.9H8.3876L7.63135 12.9937C7.5626 13.1312 7.4251 13.3375 7.08135 13.2687L6.1876 13.0625L5.56885 14.4375L7.08135 14.85C7.35635 14.9187 7.63135 14.9875 7.90635 15.0562L7.4251 17.05L8.59385 17.325L9.0751 15.4C9.41885 15.4688 9.69385 15.5375 10.0376 15.675L9.6251 17.5312L10.7938 17.8062L11.2751 15.8125C13.2688 16.225 14.8501 16.0188 15.4688 14.2313C16.0188 12.7875 15.4688 11.8938 14.3688 11.3438C15.1938 11.2063 15.8126 10.725 15.9501 9.625ZM13.2001 13.475C12.8563 14.9187 10.3813 14.1625 9.55635 13.9562L10.1751 11.3438C11.0001 11.4812 13.6126 11.8938 13.2001 13.475ZM13.6126 9.625C13.2688 11 11.2063 10.3125 10.5188 10.1062L11.1376 7.76875C11.7563 7.90625 13.9563 8.25 13.6126 9.625Z" fill="white"/>
</svg>
