<svg width="170" height="24" viewBox="0 0 170 24" fill="none" xmlns="http://www.w3.org/2000/svg">
<path d="M9.15626 12.5016C9.15626 9.66874 9.93482 7.02314 11.276 4.78613C5.76396 7.72795 2.08706 11.7015 0 14.3743C1.31505 16.2674 3.6082 19.0526 7.19023 21.2181C9.61751 22.6856 12.1135 23.5436 14.544 23.9965C11.2662 21.3237 9.15626 17.1697 9.15626 12.5016Z" fill="#02519E"/>
<path d="M46.3634 10.6256C45.0483 8.73252 42.7552 5.94732 39.1731 3.78522C36.7459 2.31772 34.2499 1.45969 31.8193 1.00684C35.0971 3.67967 37.2071 7.83363 37.2071 12.5017C37.2071 15.3346 36.4285 17.9802 35.0873 20.2172C40.5994 17.2754 44.2763 13.2985 46.3634 10.6256Z" fill="#F48020"/>
<path d="M64.069 6.53174C64.6398 6.53174 65.2172 6.53174 65.8011 6.53808C66.3849 6.54443 66.9558 6.55712 67.5137 6.57615C68.0716 6.59518 68.5971 6.63325 69.0901 6.68401L68.9798 8.34625H64.9253C64.6723 8.34625 64.4777 8.40969 64.3544 8.54293C64.2246 8.67616 64.1663 8.86015 64.1663 9.11393V14.3798C64.1663 14.6273 64.2311 14.8176 64.3544 14.9508C64.4841 15.0841 64.6723 15.1475 64.9253 15.1475H68.9798L69.0901 16.8097C68.6036 16.8478 68.0716 16.8795 67.5137 16.9049C66.9493 16.9303 66.3784 16.943 65.8011 16.9493C65.2237 16.9557 64.6398 16.9557 64.069 16.9557C63.3943 16.9557 62.8493 16.7653 62.4406 16.3783C62.0255 15.9913 61.8179 15.4838 61.8179 14.8683V8.61272C61.8179 7.98462 62.0255 7.47706 62.4406 7.10274C62.8493 6.72207 63.3943 6.53174 64.069 6.53174ZM62.0903 10.7191H68.4089V12.3369H62.0903V10.7191Z" fill="#133D65"/>
<path d="M79.6772 6.57593V16.0799C79.6772 16.6319 79.3983 16.9047 78.8339 16.9047H77.5494C77.2964 16.9047 77.1018 16.8476 76.9656 16.7334C76.8358 16.6192 76.7126 16.4479 76.5958 16.2195L73.67 10.8013C73.5468 10.5729 73.43 10.3192 73.3132 10.04C73.1965 9.76084 73.0992 9.48803 73.0148 9.23425H72.8462C72.8786 9.50072 72.9045 9.77353 72.924 10.0527C72.9435 10.3318 72.9564 10.5983 72.9564 10.8711V16.9174H70.7378V7.40071C70.7378 6.85508 71.0232 6.57593 71.5941 6.57593H72.8656C73.1121 6.57593 73.3003 6.63303 73.4235 6.74723C73.5468 6.86143 73.6765 7.03273 73.7998 7.26113L76.6282 12.5143C76.7515 12.7427 76.8747 12.9965 77.011 13.2757C77.1407 13.5548 77.2705 13.8467 77.3937 14.1449H77.5754C77.5429 13.8467 77.5235 13.5548 77.504 13.2693C77.4845 12.9838 77.4781 12.7047 77.4781 12.4255L77.4651 6.57593H79.6772Z" fill="#133D65"/>
<path d="M90.4071 6.57593L87.5268 16.2766C87.4749 16.4542 87.3775 16.6065 87.2283 16.727C87.0791 16.8476 86.904 16.9047 86.7029 16.9047H84.5621C84.348 16.9047 84.1664 16.8476 84.0171 16.727C83.8679 16.6065 83.7771 16.4606 83.7317 16.2766L80.8384 6.57593H83.2581L85.1849 14.0307C85.2238 14.221 85.2692 14.4113 85.3146 14.608C85.36 14.8047 85.3989 14.995 85.4314 15.1853H85.8271C85.8595 14.995 85.8985 14.7983 85.9439 14.6017C85.9893 14.405 86.0412 14.2083 86.0866 14.018L88.0003 6.58227H90.4071V6.57593Z" fill="#133D65"/>
<path d="M95.6685 6.3667C96.5053 6.3667 97.2124 6.45552 97.7963 6.62682C98.3801 6.80447 98.8472 7.08997 99.1975 7.49601C99.5478 7.90206 99.8073 8.44768 99.9695 9.14557C100.132 9.83711 100.216 10.7063 100.216 11.7404C100.216 12.7746 100.132 13.6438 99.9695 14.3353C99.8073 15.0269 99.5478 15.5788 99.1975 15.9785C98.8472 16.3846 98.3801 16.6701 97.7963 16.8477C97.2124 17.0254 96.5053 17.1078 95.6685 17.1078C94.8316 17.1078 94.1245 17.019 93.5406 16.8477C92.9568 16.6764 92.4897 16.3846 92.1329 15.9785C91.7761 15.5725 91.5166 15.0269 91.3544 14.3353C91.1922 13.6438 91.1079 12.7746 91.1079 11.7404C91.1079 10.7063 91.1922 9.83711 91.3544 9.14557C91.5166 8.45402 91.7761 7.90206 92.1329 7.49601C92.4897 7.08997 92.9568 6.80447 93.5406 6.62682C94.1245 6.45552 94.8316 6.3667 95.6685 6.3667ZM95.6685 8.17487C95.13 8.17487 94.7083 8.28272 94.4034 8.49209C94.0985 8.70146 93.8909 9.06309 93.7612 9.57699C93.6315 10.0909 93.5731 10.8142 93.5731 11.7404C93.5731 12.6604 93.6379 13.3773 93.7612 13.8976C93.8909 14.4178 94.105 14.7794 94.4034 14.9888C94.7019 15.1982 95.1235 15.306 95.6685 15.306C96.2004 15.306 96.6156 15.1982 96.914 14.9888C97.2124 14.7794 97.4265 14.4178 97.5563 13.8976C97.686 13.3773 97.7444 12.6604 97.7444 11.7404C97.7444 10.8142 97.6795 10.0909 97.5563 9.57699C97.4265 9.06309 97.2124 8.70146 96.914 8.49209C96.6156 8.28272 96.2004 8.17487 95.6685 8.17487Z" fill="#133D65"/>
<path d="M109.966 6.57593L106.398 13.6246H104.193L100.612 6.57593H103.045L104.822 10.3763C104.913 10.5729 104.991 10.7886 105.049 11.017C105.107 11.2454 105.166 11.4675 105.218 11.6769H105.373C105.432 11.4675 105.497 11.2454 105.555 11.017C105.614 10.7886 105.685 10.5729 105.769 10.3763L107.527 6.57593H109.966ZM106.457 12.2352V16.9047H104.115V12.2352H106.457Z" fill="#133D65"/>
<path d="M114.404 6.37939C114.923 6.37939 115.487 6.40477 116.103 6.46187C116.713 6.51897 117.31 6.62683 117.894 6.79813L117.738 8.31445C117.29 8.30176 116.765 8.29542 116.162 8.28273C115.558 8.27004 114.968 8.27004 114.384 8.27004C114.099 8.27004 113.859 8.27638 113.657 8.29542C113.456 8.31445 113.301 8.35252 113.177 8.41596C113.054 8.47941 112.97 8.58092 112.918 8.70781C112.866 8.8347 112.84 9.01868 112.84 9.24708C112.84 9.59603 112.924 9.84981 113.093 10.0084C113.262 10.167 113.547 10.313 113.956 10.4398L115.993 11.0806C116.843 11.3598 117.427 11.7405 117.751 12.2163C118.075 12.6921 118.237 13.3266 118.237 14.1006C118.237 14.6906 118.166 15.1791 118.023 15.5662C117.881 15.9532 117.654 16.2577 117.349 16.4798C117.044 16.7018 116.642 16.8541 116.142 16.9492C115.643 17.0444 115.033 17.0888 114.306 17.0888C113.956 17.0888 113.463 17.0634 112.821 17.019C112.178 16.9746 111.445 16.8604 110.615 16.6828L110.771 15.0649C111.374 15.0776 111.893 15.0903 112.341 15.103C112.782 15.1157 113.164 15.1284 113.482 15.1347C113.8 15.1411 114.073 15.1411 114.306 15.1411C114.715 15.1411 115.033 15.1157 115.26 15.0649C115.487 15.0142 115.649 14.9127 115.74 14.7668C115.831 14.6145 115.876 14.4051 115.876 14.126C115.876 13.8849 115.844 13.6945 115.779 13.5486C115.714 13.4027 115.604 13.2885 115.454 13.206C115.305 13.1235 115.104 13.0474 114.851 12.9713L112.71 12.2544C111.906 11.9625 111.335 11.5882 110.998 11.1187C110.66 10.6492 110.492 10.0338 110.492 9.26612C110.492 8.66974 110.563 8.18122 110.712 7.8069C110.861 7.43257 111.089 7.14073 111.4 6.93136C111.711 6.72199 112.114 6.57607 112.607 6.49994C113.113 6.42381 113.709 6.37939 114.404 6.37939Z" fill="#133D65"/>
<path d="M131.452 6.57593L128.578 16.2766C128.526 16.4542 128.429 16.6065 128.28 16.727C128.131 16.8476 127.955 16.9047 127.754 16.9047H125.613C125.399 16.9047 125.218 16.8476 125.069 16.727C124.919 16.6065 124.829 16.4606 124.783 16.2766L121.883 6.57593H124.303L126.23 14.0307C126.269 14.221 126.314 14.4113 126.36 14.608C126.405 14.8047 126.444 14.995 126.476 15.1853H126.872C126.904 14.995 126.943 14.7983 126.989 14.6017C127.034 14.405 127.086 14.2083 127.132 14.018L129.045 6.58227H131.452V6.57593Z" fill="#133D65"/>
<path d="M134.969 6.57593V16.9047H132.64V6.57593H134.969Z" fill="#133D65"/>
<path d="M140.586 6.37939C141.105 6.37939 141.669 6.40477 142.286 6.46187C142.895 6.51897 143.492 6.62683 144.076 6.79813L143.92 8.30811C143.473 8.29542 142.947 8.28907 142.344 8.27638C141.747 8.27004 141.15 8.27004 140.573 8.27004C140.288 8.27004 140.048 8.27638 139.846 8.29542C139.645 8.31445 139.49 8.35252 139.366 8.41596C139.243 8.47941 139.159 8.58092 139.107 8.70781C139.055 8.8347 139.029 9.01868 139.029 9.24708C139.029 9.59603 139.113 9.84981 139.282 10.0084C139.451 10.167 139.736 10.313 140.145 10.4398L142.182 11.0806C143.025 11.3598 143.616 11.7405 143.94 12.2163C144.264 12.6921 144.426 13.3266 144.426 14.1006C144.426 14.6906 144.355 15.1791 144.212 15.5662C144.07 15.9532 143.843 16.2577 143.538 16.4798C143.233 16.7018 142.831 16.8541 142.331 16.9492C141.832 17.0444 141.222 17.0888 140.495 17.0888C140.145 17.0888 139.652 17.0634 139.01 17.019C138.367 16.9746 137.634 16.8604 136.804 16.6828L136.96 15.0649C137.563 15.0776 138.082 15.0903 138.53 15.103C138.971 15.1157 139.353 15.1284 139.671 15.1347C139.989 15.1411 140.262 15.1411 140.495 15.1411C140.904 15.1411 141.222 15.1157 141.449 15.0649C141.676 15.0142 141.838 14.9127 141.929 14.7668C142.02 14.6145 142.065 14.4051 142.065 14.126C142.065 13.8849 142.033 13.6945 141.968 13.5486C141.903 13.4027 141.793 13.2885 141.643 13.206C141.494 13.1235 141.293 13.0474 141.04 12.9713L138.899 12.2544C138.095 11.9625 137.524 11.5882 137.187 11.1187C136.849 10.6492 136.681 10.0338 136.681 9.26612C136.681 8.66974 136.752 8.18122 136.901 7.8069C137.05 7.43257 137.277 7.14073 137.589 6.93136C137.9 6.72199 138.302 6.57607 138.796 6.49994C139.289 6.42381 139.892 6.37939 140.586 6.37939Z" fill="#133D65"/>
<path d="M148.41 6.57593V16.9047H146.081V6.57593H148.41Z" fill="#133D65"/>
<path d="M154.742 6.3667C155.579 6.3667 156.286 6.45552 156.87 6.62682C157.453 6.80447 157.92 7.08997 158.271 7.49601C158.621 7.90206 158.881 8.44768 159.043 9.14557C159.205 9.83711 159.289 10.7063 159.289 11.7404C159.289 12.7746 159.205 13.6438 159.043 14.3353C158.881 15.0269 158.621 15.5788 158.271 15.9785C157.92 16.3846 157.453 16.6701 156.87 16.8477C156.286 17.0254 155.579 17.1078 154.742 17.1078C153.905 17.1078 153.198 17.019 152.614 16.8477C152.03 16.6764 151.563 16.3846 151.206 15.9785C150.849 15.5725 150.59 15.0269 150.428 14.3353C150.265 13.6438 150.181 12.7746 150.181 11.7404C150.181 10.7063 150.265 9.83711 150.428 9.14557C150.59 8.45402 150.849 7.90206 151.206 7.49601C151.563 7.08997 152.03 6.80447 152.614 6.62682C153.198 6.45552 153.905 6.3667 154.742 6.3667ZM154.742 8.17487C154.203 8.17487 153.782 8.28272 153.477 8.49209C153.172 8.70146 152.964 9.06309 152.834 9.57699C152.705 10.0909 152.646 10.8142 152.646 11.7404C152.646 12.6604 152.711 13.3773 152.834 13.8976C152.964 14.4178 153.178 14.7794 153.477 14.9888C153.775 15.1982 154.197 15.306 154.742 15.306C155.274 15.306 155.689 15.1982 155.987 14.9888C156.286 14.7794 156.5 14.4178 156.629 13.8976C156.759 13.3773 156.818 12.6604 156.818 11.7404C156.818 10.8142 156.753 10.0909 156.629 9.57699C156.5 9.06309 156.286 8.70146 155.987 8.49209C155.689 8.28272 155.274 8.17487 154.742 8.17487Z" fill="#133D65"/>
<path d="M170 6.57593V16.0799C170 16.6319 169.721 16.9047 169.156 16.9047H167.872C167.619 16.9047 167.424 16.8476 167.288 16.7334C167.152 16.6192 167.035 16.4479 166.918 16.2195L163.992 10.8013C163.869 10.5729 163.752 10.3192 163.636 10.04C163.519 9.76084 163.421 9.48803 163.337 9.23425H163.168C163.201 9.50072 163.227 9.77353 163.246 10.0527C163.266 10.3318 163.279 10.5983 163.279 10.8711V16.9174H161.06V7.40071C161.06 6.85508 161.346 6.57593 161.916 6.57593H163.188C163.434 6.57593 163.616 6.63303 163.746 6.74723C163.876 6.86143 163.999 7.03273 164.122 7.26113L166.951 12.5143C167.074 12.7427 167.204 12.9965 167.333 13.2757C167.463 13.5548 167.593 13.8467 167.716 14.1449H167.898C167.865 13.8467 167.846 13.5548 167.826 13.2693C167.807 12.9838 167.8 12.7047 167.8 12.4255L167.787 6.57593H170Z" fill="#133D65"/>
<path d="M23.1803 0.233398C22.1892 0.233398 21.2274 0.366189 20.3147 0.628365C16.5168 1.68388 13.5269 4.79594 12.5128 8.74902C12.2609 9.69898 12.1333 10.7 12.1333 11.7317C12.1333 15.9844 14.3545 19.7025 17.6519 21.6876C16.7033 19.9953 16.1635 18.0273 16.1635 15.9299C16.1635 15.5145 16.1831 15.1025 16.2289 14.7008C16.7719 9.33466 20.8708 5.06834 26.0263 4.50312C26.4124 4.45546 26.8082 4.43503 27.2073 4.43503C29.2224 4.43503 31.1132 4.99683 32.739 5.98425C30.8384 2.54532 27.2662 0.233398 23.1803 0.233398Z" fill="#045599"/>
<path d="M33.8509 8.74902C32.9775 12.1539 30.6353 14.9357 27.5767 16.3147C26.2289 16.9276 24.7438 17.2646 23.1801 17.2646C20.5467 17.2646 18.126 16.3045 16.2319 14.6974C16.1861 15.0991 16.1665 15.5111 16.1665 15.9265C16.1665 18.0239 16.7063 19.992 17.6549 21.6842C18.4826 22.1881 19.3723 22.5763 20.3177 22.8384C21.2304 23.1006 22.1922 23.2334 23.1834 23.2334C29.2875 23.2334 34.2337 18.0818 34.2337 11.7317C34.2304 10.7 34.1028 9.69899 33.8509 8.74902Z" fill="#4478BB"/>
<path d="M33.8514 8.74903C32.9779 12.1539 30.6357 14.9357 27.5771 16.3147C28.1692 14.9119 28.493 13.3592 28.493 11.7317C28.493 8.99078 27.5705 6.47457 26.0298 4.49974C26.4158 4.45207 26.8116 4.43164 27.2107 4.43164C29.2258 4.43164 31.1166 4.99345 32.7424 5.98086C33.2298 6.83889 33.6028 7.76843 33.8514 8.74903Z" fill="#F48020"/>
<path d="M9.15626 11.735C9.15626 8.90214 9.93482 6.25654 11.276 4.01953C5.76396 6.96135 2.08706 10.9349 0 13.6077C1.31505 15.5008 3.6082 18.286 7.19023 20.4515C9.61751 21.919 12.1135 22.777 14.544 23.2299C11.2662 20.5571 9.15626 16.4031 9.15626 11.735Z" fill="#02519E"/>
<path d="M46.3634 9.85904C45.0483 7.96592 42.7552 5.18072 39.1731 3.01862C36.7459 1.55112 34.2499 0.693084 31.8193 0.240234C35.0971 2.91307 37.2071 7.06703 37.2071 11.7351C37.2071 14.568 36.4285 17.2136 35.0873 19.4506C40.5994 16.5088 44.2763 12.5319 46.3634 9.85904Z" fill="#F48020"/>
</svg>
