<svg width="13" height="12" viewBox="0 0 13 12" fill="none" xmlns="http://www.w3.org/2000/svg">
<path fill-rule="evenodd" clip-rule="evenodd" d="M3.44149 0.750122C4.02839 0.7502 4.59864 0.945226 5.06267 1.30457C5.5267 1.66391 5.85822 2.16721 6.00517 2.73542H11.3827V4.05895H6.00517C5.84255 4.68133 5.45897 5.22325 4.92605 5.58352C4.39312 5.94379 3.74729 6.09778 3.10914 6.01673C2.47099 5.93569 1.88415 5.62515 1.4582 5.1431C1.03225 4.66105 0.79631 4.04045 0.794434 3.39718C0.794434 2.69514 1.07332 2.02185 1.56974 1.52543C2.06616 1.02901 2.73945 0.750122 3.44149 0.750122V0.750122ZM3.44149 4.72071C3.79251 4.72071 4.12916 4.58127 4.37737 4.33306C4.62558 4.08485 4.76502 3.7482 4.76502 3.39718C4.76502 3.04616 4.62558 2.70951 4.37737 2.4613C4.12916 2.21309 3.79251 2.07365 3.44149 2.07365C3.09047 2.07365 2.75383 2.21309 2.50562 2.4613C2.25741 2.70951 2.11796 3.04616 2.11796 3.39718C2.11796 3.7482 2.25741 4.08485 2.50562 4.33306C2.75383 4.58127 3.09047 4.72071 3.44149 4.72071V4.72071Z" fill="#133D65"/>
<path fill-rule="evenodd" clip-rule="evenodd" d="M10.0593 12.0001C9.47244 12 8.90219 11.805 8.43816 11.4457C7.97413 11.0863 7.64261 10.583 7.49566 10.0148H2.11816V8.6913H7.49566C7.65828 8.06892 8.04186 7.527 8.57479 7.16673C9.10771 6.80646 9.75354 6.65247 10.3917 6.73351C11.0298 6.81456 11.6167 7.1251 12.0426 7.60714C12.4686 8.08919 12.7045 8.70979 12.7064 9.35306C12.7064 10.0551 12.4275 10.7284 11.9311 11.2248C11.4347 11.7212 10.7614 12.0001 10.0593 12.0001ZM10.0593 10.6766C10.4104 10.6766 10.747 10.5372 10.9952 10.2889C11.2434 10.0407 11.3829 9.70409 11.3829 9.35306C11.3829 9.00204 11.2434 8.6654 10.9952 8.41719C10.747 8.16898 10.4104 8.02953 10.0593 8.02953C9.70832 8.02953 9.37167 8.16898 9.12346 8.41719C8.87525 8.6654 8.73581 9.00204 8.73581 9.35306C8.73581 9.70409 8.87525 10.0407 9.12346 10.2889C9.37167 10.5372 9.70832 10.6766 10.0593 10.6766V10.6766Z" fill="#133D65"/>
</svg>
